<?xml version="1.0" standalone="no"?>
<!DOCTYPE svg PUBLIC "-//W3C//DTD SVG 20010904//EN"
 "http://www.w3.org/TR/2001/REC-SVG-20010904/DTD/svg10.dtd">
<svg version="1.0" xmlns="http://www.w3.org/2000/svg"
 width="1000.000000pt" height="1000.000000pt" viewBox="0 0 1000.000000 1000.000000"
 preserveAspectRatio="xMidYMid meet">

<g transform="translate(0.000000,1000.000000) scale(0.100000,-0.100000)"
fill="#000000" stroke="none">
<path d="M0 5000 l0 -5000 5000 0 5000 0 0 5000 0 5000 -5000 0 -5000 0 0
-5000z m3590 1986 l535 -284 3 -481 2 -481 714 0 714 0 548 -297 549 -298
-1795 -3 c-987 -1 -1801 0 -1807 3 -10 3 -13 226 -13 1065 0 583 3 1060 8
1060 4 0 248 -128 542 -284z m2815 6 l550 -277 3 -717 c1 -446 -1 -718 -7
-718 -5 0 -256 143 -558 318 l-548 318 -3 677 c-1 372 1 677 5 677 5 0 256
-125 558 -278z m547 -2138 c10 -7 10 -2124 1 -2124 -9 0 -1054 552 -1090 576
l-23 14 0 470 0 469 -722 3 -723 3 -225 124 c-124 68 -272 149 -330 181 -345
188 -536 293 -540 297 -6 7 3642 -7 3652 -13z m-3360 -463 l533 -309 3 -662
c2 -628 1 -662 -15 -656 -28 11 -1047 537 -1060 548 -10 8 -13 160 -13 699 0
422 4 689 9 689 6 0 250 -139 543 -309z"/>
</g>
</svg>
