<svg xmlns="http://www.w3.org/2000/svg" xmlns:xlink="http://www.w3.org/1999/xlink" width="500" zoomAndPan="magnify" viewBox="0 0 375 374.999991" height="500" preserveAspectRatio="xMidYMid meet" version="1.0"><defs><g/></defs><rect x="-37.5" width="450" fill="#ffffff" y="-37.499999" height="449.999989" fill-opacity="1"/><rect x="-37.5" width="450" fill="#ffffff" y="-37.499999" height="449.999989" fill-opacity="1"/><g fill="#000000" fill-opacity="1"><g transform="translate(115.779126, 199.675084)"><g><path d="M 3.21875 -44.1875 L 19.015625 -44.1875 C 23.265625 -44.1875 26.726562 -43.050781 29.40625 -40.78125 C 32.082031 -38.519531 33.421875 -35.28125 33.421875 -31.0625 C 33.421875 -27.8125 32.609375 -25.085938 30.984375 -22.890625 C 29.359375 -20.703125 27.15625 -19.160156 24.375 -18.265625 L 39.578125 0 L 26.78125 0 L 13.28125 -17.46875 L 13.28125 0 L 3.21875 0 Z M 13.28125 -24.578125 L 14.46875 -24.578125 C 15.394531 -24.578125 16.175781 -24.59375 16.8125 -24.625 C 17.457031 -24.664062 18.191406 -24.789062 19.015625 -25 C 19.835938 -25.21875 20.5 -25.523438 21 -25.921875 C 21.5 -26.316406 21.925781 -26.890625 22.28125 -27.640625 C 22.632812 -28.390625 22.8125 -29.300781 22.8125 -30.375 C 22.8125 -31.445312 22.632812 -32.351562 22.28125 -33.09375 C 21.925781 -33.84375 21.5 -34.414062 21 -34.8125 C 20.5 -35.207031 19.835938 -35.507812 19.015625 -35.71875 C 18.191406 -35.9375 17.457031 -36.0625 16.8125 -36.09375 C 16.175781 -36.132812 15.394531 -36.15625 14.46875 -36.15625 L 13.28125 -36.15625 Z M 13.28125 -24.578125 "/></g></g></g><g fill="#000000" fill-opacity="1"><g transform="translate(149.570137, 199.675084)"><g><path d="M 5.078125 -3.40625 C 2.515625 -6.207031 1.234375 -9.640625 1.234375 -13.703125 C 1.234375 -17.773438 2.515625 -21.222656 5.078125 -24.046875 C 7.648438 -26.867188 10.921875 -28.28125 14.890625 -28.28125 C 18.535156 -28.28125 21.535156 -27.140625 23.890625 -24.859375 L 23.890625 -27.484375 L 33.375 -27.484375 L 33.375 0 L 24 0 L 24 -3.109375 L 23.890625 -3.109375 C 21.535156 -0.503906 18.535156 0.796875 14.890625 0.796875 C 10.921875 0.796875 7.648438 -0.601562 5.078125 -3.40625 Z M 13.140625 -18.359375 C 11.910156 -17.148438 11.296875 -15.597656 11.296875 -13.703125 C 11.296875 -11.816406 11.882812 -10.273438 13.0625 -9.078125 C 14.25 -7.878906 15.804688 -7.28125 17.734375 -7.28125 C 19.585938 -7.28125 21.113281 -7.882812 22.3125 -9.09375 C 23.507812 -10.3125 24.109375 -11.851562 24.109375 -13.71875 C 24.109375 -15.601562 23.488281 -17.148438 22.25 -18.359375 C 21.019531 -19.578125 19.515625 -20.1875 17.734375 -20.1875 C 15.910156 -20.1875 14.378906 -19.578125 13.140625 -18.359375 Z M 13.140625 -18.359375 "/></g></g></g><g fill="#000000" fill-opacity="1"><g transform="translate(181.593882, 199.675084)"><g><path d="M 4.828125 -27.484375 L 4.828125 -33.3125 C 4.859375 -37.414062 5.816406 -40.695312 7.703125 -43.15625 C 9.597656 -45.625 12.226562 -46.859375 15.59375 -46.859375 C 17.019531 -46.859375 18.382812 -46.65625 19.6875 -46.25 C 20.988281 -45.84375 21.925781 -45.425781 22.5 -45 L 23.40625 -44.40625 L 20.078125 -37.703125 C 19.222656 -38.203125 18.28125 -38.453125 17.25 -38.453125 C 16.070312 -38.453125 15.285156 -38.050781 14.890625 -37.25 C 14.492188 -36.445312 14.296875 -35.046875 14.296875 -33.046875 L 14.296875 -27.484375 L 20.625 -27.484375 L 20.625 -20.25 L 14.296875 -20.25 L 14.296875 0 L 4.828125 0 L 4.828125 -20.25 L 0.859375 -20.25 L 0.859375 -27.484375 Z M 4.828125 -27.484375 "/></g></g></g><g fill="#000000" fill-opacity="1"><g transform="translate(197.123104, 199.675084)"><g><path d="M 5.078125 -3.40625 C 2.515625 -6.207031 1.234375 -9.640625 1.234375 -13.703125 C 1.234375 -17.773438 2.515625 -21.222656 5.078125 -24.046875 C 7.648438 -26.867188 10.921875 -28.28125 14.890625 -28.28125 C 18.535156 -28.28125 21.535156 -27.140625 23.890625 -24.859375 L 23.890625 -27.484375 L 33.375 -27.484375 L 33.375 0 L 24 0 L 24 -3.109375 L 23.890625 -3.109375 C 21.535156 -0.503906 18.535156 0.796875 14.890625 0.796875 C 10.921875 0.796875 7.648438 -0.601562 5.078125 -3.40625 Z M 13.140625 -18.359375 C 11.910156 -17.148438 11.296875 -15.597656 11.296875 -13.703125 C 11.296875 -11.816406 11.882812 -10.273438 13.0625 -9.078125 C 14.25 -7.878906 15.804688 -7.28125 17.734375 -7.28125 C 19.585938 -7.28125 21.113281 -7.882812 22.3125 -9.09375 C 23.507812 -10.3125 24.109375 -11.851562 24.109375 -13.71875 C 24.109375 -15.601562 23.488281 -17.148438 22.25 -18.359375 C 21.019531 -19.578125 19.515625 -20.1875 17.734375 -20.1875 C 15.910156 -20.1875 14.378906 -19.578125 13.140625 -18.359375 Z M 13.140625 -18.359375 "/></g></g></g><g fill="#000000" fill-opacity="1"><g transform="translate(229.146849, 199.675084)"><g><path d="M 29.78125 -27.484375 L 16.171875 -7.234375 L 28.703125 -7.234375 L 28.703125 0 L 0.265625 0 L 13.875 -20.25 L 2.515625 -20.25 L 2.515625 -27.484375 Z M 29.78125 -27.484375 "/></g></g></g><path stroke-linecap="butt" transform="matrix(0.75, 0, 0, 0.75, 90.574247, 228.073139)" fill="none" stroke-linejoin="miter" d="M -0.0000370697 5.001439 L 84.43226 5.001439 " stroke="#292929" stroke-width="10" stroke-opacity="1" stroke-miterlimit="4"/><path stroke-linecap="butt" transform="matrix(0, 0.75, -0.75, 0, 98.070394, 171.479446)" fill="none" stroke-linejoin="miter" d="M 0.00136321 5.000109 L 82.46491 5.000109 " stroke="#292929" stroke-width="10" stroke-opacity="1" stroke-miterlimit="4"/><path stroke-linecap="butt" transform="matrix(-0.75, 0, 0, -0.75, 283.487477, 146.919146)" fill="none" stroke-linejoin="miter" d="M -0.00107222 5.00157 L 84.431225 5.00157 " stroke="#292929" stroke-width="10" stroke-opacity="1" stroke-miterlimit="4"/><path stroke-linecap="butt" transform="matrix(0, -0.75, 0.75, 0, 275.991344, 203.512837)" fill="none" stroke-linejoin="miter" d="M 0.00149105 5.001125 L 82.465038 5.001125 " stroke="#292929" stroke-width="10" stroke-opacity="1" stroke-miterlimit="4"/></svg>